# xmcd CD database file
# Copyright (C) 1993-1996 Ti Kan
#
# Track frame offsets:
#	150
#	13102
#	28090
#	48227
#	60897
#	80260
#	103060
#	117112
#	139167
#	153920
#	173455
#	187100
#
# Disc length: 2722 seconds
#
# Revision: 1
# Processed by: cddbd v1.4b41PL1 Copyright (c) Steve Scherf et al.
# Submitted via: CDValet v3.01 - Copyright (c) 1997 Greg Leichner
#
DISCID=8e0aa00c
DTITLE=Gary P. Nunn - Totally Guacamole
DYEAR=1900
DGENRE=
TTITLE0=San Antonio
TTITLE1=Why Don't You Meet Me Down In Corpus
TTITLE2=My Kind Of Day On Padre
TTITLE3=Macho Man From Taco Land
TTITLE4=Standing On A Piece Of The Ryman
TTITLE5=Picking And Grinning
TTITLE6=Bunkhouse Boogie
TTITLE7=Purty Boys
TTITLE8=Can't Get The Hell Out Of Texas
TTITLE9=I Don't Live Here Anymore
TTITLE10=Nobody But Me
TTITLE11=The Old Rocking Chair
EXTD=
EXTT0=
EXTT1=
EXTT2=
EXTT3=
EXTT4=
EXTT5=
EXTT6=
EXTT7=
EXTT8=
EXTT9=
EXTT10=
EXTT11=
PLAYORDER=
